<svg width="7" height="11" viewBox="0 0 7 11" fill="none" xmlns="http://www.w3.org/2000/svg">
<path d="M6.643 2.798C6.643 3.22267 6.552 3.591 6.37 3.903C6.19667 4.215 5.95833 4.47067 5.655 4.67C5.36033 4.86933 5.02233 5.01667 4.641 5.112V5.151C5.38633 5.23767 5.94967 5.463 6.331 5.827C6.721 6.191 6.916 6.68067 6.916 7.296C6.916 7.83333 6.78167 8.31867 6.513 8.752C6.253 9.17667 5.84567 9.51467 5.291 9.766C4.745 10.0087 4.03867 10.13 3.172 10.13C2.66067 10.13 2.184 10.0867 1.742 10C1.3 9.91333 0.884 9.78767 0.494 9.623V7.959C0.892667 8.15833 1.30867 8.31 1.742 8.414C2.184 8.518 2.59133 8.57 2.964 8.57C3.666 8.57 4.15567 8.44867 4.433 8.206C4.719 7.96333 4.862 7.621 4.862 7.179C4.862 6.919 4.797 6.70233 4.667 6.529C4.537 6.347 4.30733 6.21267 3.978 6.126C3.65733 6.03067 3.20667 5.983 2.626 5.983H1.924V4.475H2.639C3.211 4.475 3.64433 4.423 3.939 4.319C4.24233 4.20633 4.446 4.059 4.55 3.877C4.66267 3.68633 4.719 3.46967 4.719 3.227C4.719 2.89767 4.615 2.642 4.407 2.46C4.20767 2.26933 3.86967 2.174 3.393 2.174C3.09833 2.174 2.82967 2.213 2.587 2.291C2.34433 2.36033 2.12333 2.447 1.924 2.551C1.73333 2.655 1.56433 2.75467 1.417 2.85L0.507 1.498C0.749667 1.32467 1.01833 1.16867 1.313 1.03C1.61633 0.891333 1.95 0.783 2.314 0.705C2.678 0.627 3.08533 0.588 3.536 0.588C4.48933 0.588 5.24333 0.783 5.798 1.173C6.36133 1.55433 6.643 2.096 6.643 2.798Z" fill="#FDE461"/>
</svg>
