<svg width="52" height="45" viewBox="0 0 52 45" fill="none" xmlns="http://www.w3.org/2000/svg">
<path d="M10.7374 0.666687L0.333374 10.0345L3.45598 13.5025L13.86 4.1347L10.7374 0.666687Z" fill="#10675B"/>
<path d="M23.6667 14.6667H28.3334V24H35.3334V28.6667H23.6667V14.6667Z" fill="#10675B"/>
<path fill-rule="evenodd" clip-rule="evenodd" d="M5.00004 24C5.00004 12.402 14.4021 3.00002 26 3.00002C37.598 3.00002 47 12.402 47 24C47 35.598 37.598 45 26 45C14.4021 45 5.00004 35.598 5.00004 24ZM9.66671 24C9.66671 14.9794 16.9794 7.66669 26 7.66669C35.0207 7.66669 42.3334 14.9794 42.3334 24C42.3334 33.0207 35.0207 40.3334 26 40.3334C16.9794 40.3334 9.66671 33.0207 9.66671 24Z" fill="#10675B"/>
<path d="M41.2627 0.666687L51.6667 10.0345L48.5441 13.5025L38.1401 4.1347L41.2627 0.666687Z" fill="#10675B"/>
</svg>
