<svg width="52" height="45" viewBox="0 0 52 45" fill="none" xmlns="http://www.w3.org/2000/svg">
<path d="M10.9834 0.4375L0.71875 9.67987L3.79954 13.1014L14.0642 3.85906L10.9834 0.4375Z" fill="#10675B"/>
<path d="M23.7396 14.25H28.3438V23.4583H35.25V28.0625H23.7396V14.25Z" fill="#10675B"/>
<path fill-rule="evenodd" clip-rule="evenodd" d="M5.32292 23.4583C5.32292 12.0157 14.599 2.73958 26.0417 2.73958C37.4843 2.73958 46.7604 12.0157 46.7604 23.4583C46.7604 34.901 37.4843 44.1771 26.0417 44.1771C14.599 44.1771 5.32292 34.901 5.32292 23.4583ZM9.92708 23.4583C9.92708 14.5585 17.1418 7.34375 26.0417 7.34375C34.9415 7.34375 42.1562 14.5585 42.1562 23.4583C42.1562 32.3582 34.9415 39.5729 26.0417 39.5729C17.1418 39.5729 9.92708 32.3582 9.92708 23.4583Z" fill="#10675B"/>
<path d="M41.0999 0.4375L51.3646 9.67987L48.2838 13.1014L38.0191 3.85906L41.0999 0.4375Z" fill="#10675B"/>
</svg>
