<svg width="24" height="32" viewBox="0 0 24 32" fill="none" xmlns="http://www.w3.org/2000/svg">
<path fill-rule="evenodd" clip-rule="evenodd" d="M14.8334 3.25001V3.66067C18.9297 4.87978 21.9167 8.67439 21.9167 13.1667V23.0833H23.3334V25.9167H0.666748V23.0833H2.08341V13.1667C2.08341 8.67439 5.07047 4.87978 9.16675 3.66067V3.25001C9.16675 1.6852 10.4353 0.416672 12.0001 0.416672C13.5649 0.416672 14.8334 1.6852 14.8334 3.25001ZM4.91675 23.0833H19.0834V13.1667C19.0834 9.25465 15.9121 6.08334 12.0001 6.08334C8.08807 6.08334 4.91675 9.25465 4.91675 13.1667V23.0833ZM14.8334 28.75V27.3333H9.16675V28.75C9.16675 30.3148 10.4353 31.5833 12.0001 31.5833C13.5649 31.5833 14.8334 30.3148 14.8334 28.75Z" fill="#10675B"/>
</svg>
