<svg width="22" height="22" viewBox="0 0 22 22" fill="none" xmlns="http://www.w3.org/2000/svg">
<path d="M15.3956 6.75734C15.7862 7.14786 15.7862 7.78103 15.3956 8.17155L12.4142 11.153L15.0896 13.8284C15.4802 14.2189 15.4802 14.8521 15.0896 15.2426C14.6991 15.6331 14.0659 15.6331 13.6754 15.2426L11 12.5672L8.32458 15.2426C7.93405 15.6331 7.30089 15.6331 6.91036 15.2426C6.51984 14.8521 6.51984 14.2189 6.91036 13.8284L9.58579 11.153L6.60436 8.17155C6.21383 7.78103 6.21383 7.14786 6.60436 6.75734C6.99488 6.36681 7.62805 6.36681 8.01857 6.75734L11 9.73877L13.9814 6.75734C14.372 6.36681 15.0051 6.36681 15.3956 6.75734Z" fill="#FDE461"/>
<path fill-rule="evenodd" clip-rule="evenodd" d="M3 0C1.34315 0 0 1.34315 0 3V19C0 20.6569 1.34315 22 3 22H19C20.6569 22 22 20.6569 22 19V3C22 1.34315 20.6569 0 19 0H3ZM19 2H3C2.44772 2 2 2.44772 2 3V19C2 19.5523 2.44772 20 3 20H19C19.5523 20 20 19.5523 20 19V3C20 2.44772 19.5523 2 19 2Z" fill="#FDE461"/>
</svg>
