<svg width="21" height="21" viewBox="0 0 21 21" fill="none" xmlns="http://www.w3.org/2000/svg">
<path d="M13.3924 12.0377L16.1528 8.11822C16.4261 7.73215 15.9079 7.31251 15.5122 7.58947L12.535 9.60375C12.4372 9.66913 12.3182 9.70447 12.1958 9.70447C12.0735 9.70447 11.9545 9.66913 11.8567 9.60375L9.65207 8.12661C8.99258 7.69019 8.05044 7.84965 7.60763 8.46233L4.84717 12.3818C4.57395 12.7679 5.09212 13.1875 5.48782 12.9105L8.46498 10.8962C8.56283 10.8309 8.68184 10.7955 8.80415 10.7955C8.92646 10.7955 9.04547 10.8309 9.14332 10.8962L11.3479 12.3482C12.0074 12.8098 12.9496 12.6504 13.3924 12.0377Z" fill="#10675B"/>
<path fill-rule="evenodd" clip-rule="evenodd" d="M10.5 0.25C4.89086 0.25 0.34375 4.61522 0.34375 10C0.34375 12.7651 1.54369 15.2621 3.46875 17.0356V19.5C3.46875 19.7411 3.58947 19.9675 3.7932 20.1084C3.99692 20.2494 4.25881 20.2878 4.49705 20.2115L7.39253 19.285C8.37283 19.5871 9.41731 19.75 10.5 19.75C16.1091 19.75 20.6562 15.3848 20.6562 10C20.6562 4.61522 16.1091 0.25 10.5 0.25ZM1.90625 10C1.90625 5.44365 5.7538 1.75 10.5 1.75C15.2462 1.75 19.0938 5.44365 19.0938 10C19.0938 14.5563 15.2462 18.25 10.5 18.25C9.50048 18.25 8.54242 18.0865 7.65221 17.7865C7.48871 17.7313 7.31075 17.73 7.14636 17.7826L5.03125 18.4594V16.7083C5.03125 16.495 4.93661 16.2917 4.77103 16.1495C3.01164 14.6378 1.90625 12.4433 1.90625 10Z" fill="#10675B"/>
</svg>
