<svg width="13" height="20" viewBox="0 0 13 20" fill="none" xmlns="http://www.w3.org/2000/svg">
<path fill-rule="evenodd" clip-rule="evenodd" d="M4.92476 1.78769C5.95035 0.803123 7.34135 0.25 8.79175 0.25H11.6042C12.0357 0.25 12.3855 0.585786 12.3855 1V4.6C12.3855 5.01421 12.0357 5.35 11.6042 5.35H8.79175C8.75031 5.35 8.71057 5.3658 8.68126 5.39393C8.65196 5.42206 8.6355 5.46022 8.6355 5.5V7.45H11.6042C11.8448 7.45 12.072 7.5564 12.22 7.73844C12.3681 7.92048 12.4205 8.15785 12.3622 8.3819L11.4247 11.9819C11.3377 12.3158 11.0252 12.55 10.6667 12.55H8.6355V19C8.6355 19.4142 8.28572 19.75 7.85425 19.75H4.10425C3.67278 19.75 3.323 19.4142 3.323 19V12.55H1.29175C0.860276 12.55 0.510498 12.2142 0.510498 11.8V8.2C0.510498 7.78579 0.860276 7.45 1.29175 7.45H3.323V5.5C3.323 4.10761 3.89917 2.77226 4.92476 1.78769ZM8.79175 1.75C7.75575 1.75 6.76218 2.14509 6.02961 2.84835C5.29705 3.55161 4.8855 4.50544 4.8855 5.5V8.2C4.8855 8.61421 4.53572 8.95 4.10425 8.95H2.073V11.05H4.10425C4.53572 11.05 4.8855 11.3858 4.8855 11.8V18.25H7.073V11.8C7.073 11.3858 7.42278 11.05 7.85425 11.05H10.0568L10.6036 8.95H7.85425C7.42278 8.95 7.073 8.61421 7.073 8.2V5.5C7.073 5.06239 7.25408 4.64271 7.57641 4.33327C7.89874 4.02384 8.33591 3.85 8.79175 3.85H10.823V1.75H8.79175Z" fill="#10675B"/>
</svg>
