<svg width="31" height="26" viewBox="0 0 31 26" fill="none" xmlns="http://www.w3.org/2000/svg">
<path d="M9.35016 0.96875C4.59953 0.96875 0.552246 4.52089 0.552246 9.13423C0.552246 12.3168 2.0425 14.9962 4.01758 17.2157C5.98588 19.4276 8.52529 21.2843 10.821 22.8382L14.782 25.5194C15.2157 25.813 15.7846 25.813 16.2184 25.5194L20.1793 22.8382C22.475 21.2843 25.0144 19.4276 26.9827 17.2157C28.9578 14.9962 30.4481 12.3168 30.4481 9.13423C30.4481 4.52089 26.4008 0.96875 21.6502 0.96875C19.2013 0.96875 17.0465 2.11699 15.5002 3.60271C13.9539 2.11699 11.799 0.96875 9.35016 0.96875Z" fill="#10675B"/>
</svg>
