<svg width="31" height="26" viewBox="0 0 31 26" fill="none" xmlns="http://www.w3.org/2000/svg">
<path d="M9.35004 0.96875C4.59941 0.96875 0.552124 4.52089 0.552124 9.13423C0.552124 12.3168 2.04238 14.9962 4.01746 17.2157C5.98576 19.4276 8.52516 21.2843 10.8209 22.8382L14.7818 25.5194C15.2156 25.813 15.7845 25.813 16.2182 25.5194L20.1792 22.8382C22.4749 21.2843 25.0143 19.4276 26.9826 17.2157C28.9577 14.9962 30.448 12.3168 30.448 9.13423C30.448 4.52089 26.4007 0.96875 21.65 0.96875C19.2012 0.96875 17.0464 2.11699 15.5 3.60271C13.9537 2.11699 11.7989 0.96875 9.35004 0.96875Z" fill="#FFFC54"/>
</svg>
