<svg width="27" height="32" viewBox="0 0 27 32" fill="none" xmlns="http://www.w3.org/2000/svg">
<path d="M16.5682 2.06585C14.8899 0.332545 12.11 0.332542 10.4317 2.06584L2.23431 10.5319C1.76352 11.0181 1.44716 11.6328 1.32509 12.2985C0.329545 17.7275 0.256058 23.2855 1.10772 28.739L1.40925 30.6697C1.50448 31.2796 2.02973 31.7291 2.64697 31.7291H8.37494C8.84668 31.7291 9.22911 31.3467 9.22911 30.875V18.9166H17.7708V30.875C17.7708 31.3467 18.1532 31.7291 18.6249 31.7291H24.3528C24.9701 31.7291 25.4953 31.2796 25.5906 30.6697L25.8921 28.739C26.7437 23.2855 26.6703 17.7275 25.6747 12.2985C25.5526 11.6328 25.2363 11.0181 24.7655 10.5319L16.5682 2.06585Z" fill="#FFFC54"/>
</svg>
