<svg width="27" height="32" viewBox="0 0 27 32" fill="none" xmlns="http://www.w3.org/2000/svg">
<path d="M16.5683 2.06588C14.89 0.332575 12.1101 0.332572 10.4318 2.06587L2.23443 10.5319C1.76364 11.0181 1.44729 11.6328 1.32521 12.2985C0.329667 17.7275 0.25618 23.2855 1.10784 28.739L1.40937 30.6698C1.50461 31.2796 2.02986 31.7292 2.64709 31.7292H8.37506C8.84681 31.7292 9.22923 31.3468 9.22923 30.875V18.9167H17.7709V30.875C17.7709 31.3468 18.1533 31.7292 18.6251 31.7292H24.353C24.9702 31.7292 25.4954 31.2796 25.5907 30.6698L25.8922 28.739C26.7439 23.2855 26.6704 17.7275 25.6748 12.2985C25.5528 11.6328 25.2364 11.0181 24.7656 10.5319L16.5683 2.06588Z" fill="#10675B"/>
</svg>
