<svg width="20" height="21" viewBox="0 0 20 21" fill="none" xmlns="http://www.w3.org/2000/svg">
<path d="M9 9.05894C9 8.50265 9.44771 8.05169 10 8.05169C10.5523 8.05169 11 8.50265 11 9.05894V15.1024C11 15.6587 10.5523 16.1097 10 16.1097C9.44771 16.1097 9 15.6587 9 15.1024V9.05894Z" fill="#10675B"/>
<path d="M10 4.095C9.44771 4.095 9 4.54596 9 5.10225C9 5.65853 9.44771 6.10949 10 6.10949C10.5523 6.10949 11 5.65853 11 5.10225C11 4.54596 10.5523 4.095 10 4.095Z" fill="#10675B"/>
<path fill-rule="evenodd" clip-rule="evenodd" d="M10 0.0144958C4.47715 0.0144958 0 4.52409 0 10.087C0 15.6498 4.47715 20.1594 10 20.1594C15.5228 20.1594 20 15.6498 20 10.087C20 4.52409 15.5228 0.0144958 10 0.0144958ZM2 10.087C2 14.5373 5.58172 18.1449 10 18.1449C14.4183 18.1449 18 14.5373 18 10.087C18 5.63667 14.4183 2.02899 10 2.02899C5.58172 2.02899 2 5.63667 2 10.087Z" fill="#10675B"/>
</svg>
