<svg width="19" height="19" viewBox="0 0 19 19" fill="none" xmlns="http://www.w3.org/2000/svg">
<path d="M8.625 8.60695C8.625 8.1237 9.01675 7.73195 9.5 7.73195C9.98325 7.73195 10.375 8.1237 10.375 8.60695V13.8569C10.375 14.3402 9.98325 14.7319 9.5 14.7319C9.01675 14.7319 8.625 14.3402 8.625 13.8569V8.60695Z" fill="#FDE461"/>
<path d="M9.5 4.29475C9.01675 4.29475 8.625 4.6865 8.625 5.16975C8.625 5.653 9.01675 6.04475 9.5 6.04475C9.98325 6.04475 10.375 5.653 10.375 5.16975C10.375 4.6865 9.98325 4.29475 9.5 4.29475Z" fill="#FDE461"/>
<path fill-rule="evenodd" clip-rule="evenodd" d="M9.5 0.75C4.66751 0.75 0.75 4.66751 0.75 9.5C0.75 14.3325 4.66751 18.25 9.5 18.25C14.3325 18.25 18.25 14.3325 18.25 9.5C18.25 4.66751 14.3325 0.75 9.5 0.75ZM2.5 9.5C2.5 13.366 5.63401 16.5 9.5 16.5C13.366 16.5 16.5 13.366 16.5 9.5C16.5 5.63401 13.366 2.5 9.5 2.5C5.63401 2.5 2.5 5.63401 2.5 9.5Z" fill="#FDE461"/>
</svg>
