<svg width="21" height="20" viewBox="0 0 21 20" fill="none" xmlns="http://www.w3.org/2000/svg">
<path d="M14.6667 4.99998C14.6667 4.4477 15.1331 3.99998 15.7084 3.99998C16.2837 3.99998 16.75 4.4477 16.75 4.99998C16.75 5.55227 16.2837 5.99998 15.7084 5.99998C15.1331 5.99998 14.6667 5.55227 14.6667 4.99998Z" fill="#10675B"/>
<path fill-rule="evenodd" clip-rule="evenodd" d="M10.5 5.24998C7.76739 5.24998 5.55213 7.37663 5.55213 9.99998C5.55213 12.6233 7.76739 14.75 10.5 14.75C13.2327 14.75 15.448 12.6233 15.448 9.99998C15.448 7.37663 13.2327 5.24998 10.5 5.24998ZM7.11463 9.99998C7.11463 8.20506 8.63033 6.74998 10.5 6.74998C12.3698 6.74998 13.8855 8.20506 13.8855 9.99998C13.8855 11.7949 12.3698 13.25 10.5 13.25C8.63033 13.25 7.11463 11.7949 7.11463 9.99998Z" fill="#10675B"/>
<path fill-rule="evenodd" clip-rule="evenodd" d="M15.9774 0.833C12.3664 0.445559 8.63374 0.445559 5.02272 0.833C2.92683 1.05788 1.23482 2.64289 0.988409 4.66542C0.556598 8.20971 0.556598 11.7903 0.988409 15.3346C1.23482 17.3571 2.92683 18.9421 5.02273 19.167C8.63374 19.5544 12.3664 19.5544 15.9774 19.167C18.0733 18.9421 19.7653 17.3571 20.0117 15.3346C20.4435 11.7903 20.4435 8.20971 20.0117 4.66542C19.7653 2.64289 18.0733 1.05788 15.9774 0.833ZM5.19628 2.32372C8.69195 1.94865 12.3082 1.94865 15.8038 2.32372C17.1894 2.47238 18.2993 3.52199 18.4598 4.83967C18.8775 8.26819 18.8775 11.7318 18.4598 15.1603C18.2993 16.478 17.1894 17.5276 15.8038 17.6762C12.3082 18.0513 8.69195 18.0513 5.19628 17.6762C3.81075 17.5276 2.70087 16.478 2.54033 15.1603C2.12262 11.7318 2.12262 8.26819 2.54033 4.83967C2.70087 3.52199 3.81075 2.47238 5.19628 2.32372Z" fill="#10675B"/>
</svg>
