<svg width="894" height="718" viewBox="0 0 894 718" fill="none" xmlns="http://www.w3.org/2000/svg">
<g clip-path="url(#clip0_62_1456)">
<path d="M780.92 353.97L782.92 422.97C782.903 431.459 780.639 439.792 776.358 447.123C772.078 454.454 765.934 460.522 758.55 464.71L344.16 703.95C336.071 708.624 326.899 711.098 317.556 711.126C308.214 711.154 299.027 708.735 290.91 704.11L28.44 554.65C21.7763 550.854 16.236 545.362 12.3824 538.732C8.52886 532.101 6.49944 524.569 6.50009 516.9L8.92001 444.97L780.92 353.97Z" fill="#FCEE21" stroke="black" stroke-width="13" stroke-linecap="round" stroke-linejoin="round"/>
<path d="M25.4 473L285.76 623.53C294.927 628.834 305.33 631.627 315.92 631.627C326.51 631.627 336.914 628.834 346.08 623.53L766.49 380.27C770.861 377.744 774.491 374.113 777.014 369.74C779.537 365.368 780.865 360.408 780.865 355.36C780.865 350.312 779.537 345.352 777.014 340.98C774.491 336.607 770.861 332.976 766.49 330.45L498.62 175.79C489.19 170.345 478.488 167.492 467.599 167.52C456.71 167.548 446.022 170.456 436.62 175.95L25.2401 416.19C3.49013 428.9 3.56004 460.4 25.4 473Z" fill="#00A99D" stroke="black" stroke-width="13" stroke-linecap="round" stroke-linejoin="round"/>
<path d="M318 507.51L315.59 377.27L394 332V247.03L470 203.15V290.91L546 247.03V378.67L318 507.51Z" fill="white" stroke="black" stroke-width="13" stroke-linecap="round" stroke-linejoin="round"/>
<path d="M394 247.03L470 203.15L394 159.27L315.59 201.76L394 247.03Z" fill="white" stroke="black" stroke-width="13" stroke-linecap="round" stroke-linejoin="round"/>
<path d="M315.79 205.47V286.56L239.59 331.92L315.79 377.27L394.42 330.48L393.21 250.86" fill="white"/>
<path d="M315.79 205.47V286.56L239.59 331.92L315.79 377.27L394.42 330.48L393.21 250.86" stroke="black" stroke-width="13" stroke-linecap="round" stroke-linejoin="round"/>
<path d="M315.42 289.47L388.42 332.47" stroke="black" stroke-width="13" stroke-linecap="round" stroke-linejoin="round"/>
<path d="M239.59 333.39V465.03L318 507.51L315.59 377.27L239.59 333.39Z" fill="white" stroke="black" stroke-width="13" stroke-linecap="round" stroke-linejoin="round"/>
<path d="M546 247.03L470 203.15V290.91L546 247.03Z" fill="white" stroke="black" stroke-width="13" stroke-linecap="round" stroke-linejoin="round"/>
<path d="M441.42 115.97L388.92 89.47V154.04L441.42 115.97Z" fill="#00FF00" stroke="black" stroke-width="13" stroke-linecap="round" stroke-linejoin="round"/>
<path d="M414.92 263.45V303.47L450.72 283.46V242.79L414.92 263.45Z" fill="#00FFFF" stroke="black" stroke-width="13" stroke-linecap="round" stroke-linejoin="round"/>
<path d="M338.92 388.25V428.47L374.42 408.36V367.47L338.92 388.25Z" fill="#00FFFF" stroke="black" stroke-width="13" stroke-linecap="round" stroke-linejoin="round"/>
<path d="M490.92 306.25V346.47L526.42 326.36V285.47L490.92 306.25Z" fill="#00FFFF" stroke="black" stroke-width="13" stroke-linecap="round" stroke-linejoin="round"/>
<path d="M165.92 279.37C165.92 279.37 163.75 274.69 163.48 274.09C163.09 273.23 157.76 261.18 162.27 255.64C165.79 251.32 171.67 255.43 180.5 251.29C189.33 247.15 187.94 240.74 195.61 237.73C204.08 234.41 216.61 237.94 221.61 244.99C225.95 251.12 220.96 254.79 225.26 264.36C229.26 273.27 227.72 273.5 227.34 279.36C227.03 284.21 230.49 285.29 226.34 292.43C220.19 302.89 225.34 309.78 219.57 314.21C214.57 318.05 206.33 316.21 201.34 315.21C193.86 313.59 200.4 314.15 190.92 310.85C179.11 306.75 170.13 311.07 166.92 307.47C166.92 307.47 162.04 298.21 165.92 279.37Z" fill="#22B573" stroke="black" stroke-width="13" stroke-linecap="round" stroke-linejoin="round"/>
<path d="M190.91 310.84L191.74 355.47H201.63L201.33 315.19" fill="#E8CC7E"/>
<path d="M190.91 310.84L191.74 355.47H201.63L201.33 315.19" stroke="black" stroke-width="13" stroke-linecap="round" stroke-linejoin="round"/>
<path d="M267.92 461.58L265.05 455.42C264.59 454.42 258.33 440.34 263.63 433.87C267.77 428.81 274.69 433.62 285.08 428.78C295.47 423.94 293.84 416.46 302.85 412.94C312.85 409.06 327.62 413.19 333.5 421.43C338.6 428.58 332.73 432.86 337.78 444.05C342.49 454.45 340.68 454.72 340.24 461.58C339.87 467.24 343.94 468.51 339.01 476.84C331.78 489.07 337.85 497.11 331.01 502.29C325.13 506.77 315.43 504.69 309.56 503.42C300.76 501.53 308.46 502.18 297.31 498.33C283.41 493.54 272.84 498.58 269.12 494.33C269.1 494.37 263.32 483.59 267.92 461.58Z" fill="#22B573" stroke="black" stroke-width="13" stroke-linecap="round" stroke-linejoin="round"/>
<path d="M297.29 498.33L298.26 550.47H309.9L309.55 503.42" fill="#E8CC7E"/>
<path d="M297.29 498.33L298.26 550.47H309.9L309.55 503.42" stroke="black" stroke-width="13" stroke-linecap="round" stroke-linejoin="round"/>
<path d="M612.23 254.97C612.23 254.97 609.93 249.9 609.65 249.25C609.23 248.32 603.6 235.25 608.37 229.25C612.1 224.56 618.37 229.02 627.67 224.52C636.97 220.02 635.55 213.09 643.67 209.83C652.67 206.22 665.95 210.05 671.24 217.7C675.83 224.34 670.56 228.32 675.1 238.7C679.34 248.36 677.71 248.61 677.31 254.97C676.98 260.23 680.65 261.4 676.21 269.14C669.7 280.49 675.16 287.95 669.04 292.76C663.74 296.92 655.04 294.98 649.73 293.76C641.81 292 648.73 292.61 638.73 289.03C626.23 284.58 616.73 289.26 613.36 285.36C613.33 285.41 608.14 275.4 612.23 254.97Z" fill="#22B573" stroke="black" stroke-width="13" stroke-linecap="round" stroke-linejoin="round"/>
<path d="M638.71 289.08L639.58 337.47H650.05L649.74 293.81" fill="#E8CC7E"/>
<path d="M638.71 289.08L639.58 337.47H650.05L649.74 293.81" stroke="black" stroke-width="13" stroke-linecap="round" stroke-linejoin="round"/>
<path d="M386.83 471.77C386.83 471.77 384.69 467.91 384.43 467.42C384.04 466.7 378.79 456.76 383.24 452.19C386.71 448.62 392.5 452.01 401.24 448.59C409.98 445.17 408.57 439.89 416.12 437.4C424.47 434.66 436.86 437.57 441.78 443.4C446.05 448.45 441.14 451.48 445.37 459.4C449.31 466.75 447.8 466.94 447.43 471.79C447.12 475.79 450.53 476.68 446.43 482.58C440.37 491.22 445.43 496.89 439.76 500.58C434.83 503.75 426.71 502.27 421.76 501.38C414.39 500.04 420.84 500.5 411.49 497.78C408.25 496.857 404.908 496.337 401.54 496.23C392.46 495.88 385.36 489.96 385.4 482.88C385.44 479.133 385.92 475.405 386.83 471.77V471.77Z" fill="#006837" stroke="black" stroke-width="13" stroke-linecap="round" stroke-linejoin="round"/>
<path d="M531.83 388.77C531.83 388.77 529.69 384.91 529.43 384.42C529.04 383.7 523.79 373.76 528.24 369.19C531.71 365.62 537.5 369.01 546.24 365.59C554.98 362.17 553.57 356.89 561.12 354.4C569.47 351.66 581.86 354.57 586.78 360.4C591.05 365.45 586.14 368.48 590.37 376.4C594.31 383.75 592.8 383.94 592.43 388.79C592.12 392.79 595.53 393.68 591.43 399.58C585.37 408.22 590.43 413.89 584.76 417.58C579.83 420.75 571.71 419.27 566.76 418.38C559.39 417.04 565.84 417.5 556.49 414.78C553.25 413.857 549.908 413.337 546.54 413.23C537.46 412.88 530.36 406.96 530.4 399.88C530.44 396.133 530.92 392.405 531.83 388.77V388.77Z" fill="#006837" stroke="black" stroke-width="13" stroke-linecap="round" stroke-linejoin="round"/>
<path d="M401 366.7L483.95 321.21L538.42 343.96L453.33 393.08L401 366.7Z" fill="#FCEE21" stroke="black" stroke-width="13" stroke-linecap="round" stroke-linejoin="round"/>
<path d="M453.34 393.08V471.77" stroke="black" stroke-width="13" stroke-linecap="round" stroke-linejoin="round"/>
<path d="M401 366.7L401.2 448.59" stroke="black" stroke-width="13" stroke-linecap="round" stroke-linejoin="round"/>
<path d="M490.92 375.58V409.79L538.42 436.21V343.96L490.92 375.58Z" fill="white" stroke="black" stroke-width="13" stroke-linecap="round" stroke-linejoin="round"/>
<path d="M101 121.45V162.54L174.59 120.06V76.18L101 121.45Z" fill="#C6CAFF" stroke="black" stroke-width="10" stroke-linecap="round" stroke-linejoin="round"/>
<path d="M24.42 76.58L100.42 120.45V161.54L24.42 120.45V76.58Z" stroke="black" stroke-width="10" stroke-linecap="round" stroke-linejoin="round"/>
<path d="M24.42 76.58L100 33.97L174.59 76.18L100.42 120.45L24.42 76.58Z" stroke="black" stroke-width="10" stroke-linecap="round" stroke-linejoin="round"/>
<path d="M774 115.39V156.25L888.41 90.43L888 49.58L774 115.39Z" fill="#C6CAFF" stroke="black" stroke-width="10" stroke-linecap="round" stroke-linejoin="round"/>
<path d="M733.59 92.06L774 115.39L888 49.58L810.79 5L771.59 26.24L807.17 49.58L733.59 92.06Z" fill="white" stroke="black" stroke-width="10" stroke-linecap="round" stroke-linejoin="round"/>
<path d="M733.59 135.94L774 156.25V115.39L733.59 92.0601V135.94Z" fill="white" stroke="black" stroke-width="10" stroke-linecap="round" stroke-linejoin="round"/>
<path d="M771.59 26.24V66.03L807.17 49.58L771.59 26.24Z" fill="#C6CAFF" stroke="black" stroke-width="10" stroke-linecap="round" stroke-linejoin="round"/>
</g>
<defs>
<clipPath id="clip0_62_1456">
<rect width="893.41" height="717.63" fill="white"/>
</clipPath>
</defs>
</svg>
