<svg width="27" height="29" viewBox="0 0 27 29" fill="none" xmlns="http://www.w3.org/2000/svg">
<path d="M13.5001 0.40625C9.96201 0.40625 7.09383 3.27443 7.09383 6.8125C7.09383 10.3506 9.96201 13.2187 13.5001 13.2187C17.0382 13.2187 19.9063 10.3506 19.9063 6.8125C19.9063 3.27443 17.0382 0.40625 13.5001 0.40625Z" fill="#FFFC54"/>
<path d="M6.66675 16.6354C3.12867 16.6354 0.260498 19.5036 0.260498 23.0417V25.0716C0.260498 26.3584 1.19305 27.4556 2.463 27.6629C9.77267 28.8563 17.2275 28.8563 24.5372 27.6629C25.8071 27.4556 26.7397 26.3584 26.7397 25.0716V23.0417C26.7397 19.5036 23.8715 16.6354 20.3334 16.6354H19.7511C19.4359 16.6354 19.1227 16.6853 18.8231 16.7831L17.3445 17.2659C14.8465 18.0816 12.1537 18.0816 9.65562 17.2659L8.17704 16.7831C7.87743 16.6853 7.56424 16.6354 7.24907 16.6354H6.66675Z" fill="#FFFC54"/>
</svg>
