<svg width="21" height="20" viewBox="0 0 21 20" fill="none" xmlns="http://www.w3.org/2000/svg">
<path d="M15.2656 5.25C15.3299 5.5947 15.2468 5.93083 14.9132 5.96106L14.3598 6.05695L14.1299 14.374C13.6425 14.6242 13.1991 14.7615 12.833 14.7492C12.2428 14.7295 12.1004 14.5344 11.6764 13.9534L8.23347 8.00738L8.07765 13.643L9.21092 13.9474C9.21092 13.9474 9.19209 14.6282 8.27286 14.5975L5.73176 14.6647C5.66216 14.5103 5.74646 14.1328 6.00707 14.0685L6.67357 13.9003L6.87954 6.45078L5.9624 6.34408C5.89807 5.99938 6.09642 5.515 6.61051 5.49445L9.33687 5.39509L12.925 11.4217L13.0694 6.20063L12.1161 6.0544C12.0538 5.63736 12.3544 5.34318 12.7244 5.32025L15.2656 5.25Z" fill="#10675B"/>
<path fill-rule="evenodd" clip-rule="evenodd" d="M15.9774 0.833031C12.3664 0.44559 8.63374 0.44559 5.02272 0.833031C2.92683 1.05791 1.23482 2.64292 0.988409 4.66545C0.556598 8.20975 0.556598 11.7903 0.988409 15.3346C1.23482 17.3571 2.92683 18.9421 5.02273 19.167C8.63374 19.5544 12.3664 19.5544 15.9774 19.167C18.0733 18.9421 19.7653 17.3571 20.0117 15.3346C20.4435 11.7903 20.4435 8.20974 20.0117 4.66545C19.7653 2.64292 18.0733 1.05791 15.9774 0.833031ZM5.19628 2.32375C8.69195 1.94868 12.3082 1.94868 15.8038 2.32375C17.1894 2.47241 18.2993 3.52202 18.4598 4.8397C18.8775 8.26822 18.8775 11.7318 18.4598 15.1603C18.2993 16.478 17.1894 17.5276 15.8038 17.6763C12.3082 18.0513 8.69195 18.0513 5.19628 17.6763C3.81075 17.5276 2.70087 16.478 2.54033 15.1603C2.12262 11.7318 2.12262 8.26822 2.54033 4.8397C2.70087 3.52202 3.81075 2.47241 5.19628 2.32375Z" fill="#10675B"/>
</svg>
