<svg width="22" height="22" viewBox="0 0 22 22" fill="none" xmlns="http://www.w3.org/2000/svg">
<path d="M11.0001 0C8.23866 0 6.00008 2.23858 6.00008 5C6.00008 7.76142 8.23866 10 11.0001 10C13.7615 10 16.0001 7.76142 16.0001 5C16.0001 2.23858 13.7615 0 11.0001 0Z" fill="#FFFC54"/>
<path d="M5.66675 12.6667C2.90532 12.6667 0.666748 14.9052 0.666748 17.6667V19.251C0.666748 20.2554 1.39459 21.1117 2.38578 21.2735C8.09088 22.2049 13.9093 22.2049 19.6144 21.2735C20.6056 21.1117 21.3334 20.2554 21.3334 19.251V17.6667C21.3334 14.9052 19.0948 12.6667 16.3334 12.6667H15.8789C15.6329 12.6667 15.3885 12.7056 15.1547 12.7819L14.0006 13.1587C12.0509 13.7954 9.94924 13.7954 7.99953 13.1587L6.84551 12.7819C6.61167 12.7056 6.36723 12.6667 6.12124 12.6667H5.66675Z" fill="#FFFC54"/>
</svg>
