<svg width="18" height="14" viewBox="0 0 18 14" fill="none" xmlns="http://www.w3.org/2000/svg">
<path d="M0.553939 11.0608C0.457802 11.2506 0.492374 11.4805 0.640097 11.6337C0.787819 11.7869 1.01632 11.8298 1.20954 11.7406L3.70888 10.5871C5.80948 9.61759 8.10182 9.17407 10.3902 9.27839C10.4174 10.0133 10.4577 10.7477 10.5112 11.4815L10.5797 12.4205C10.6212 12.9901 11.2564 13.3086 11.7376 13.001C13.8266 11.6662 15.6427 9.94626 17.089 7.93286L17.5492 7.29224C17.6744 7.11792 17.6744 6.88314 17.5492 6.70882L17.089 6.0682C15.6427 4.0548 13.8266 2.33485 11.7376 1.00003C11.2564 0.692491 10.6212 1.01093 10.5797 1.58058L10.5112 2.51954C10.4653 3.14939 10.4291 3.77978 10.4025 4.41047H9.75945C6.17848 4.41047 2.90176 6.42411 1.28406 9.61886L0.553939 11.0608Z" fill="black"/>
</svg>
