<svg width="27" height="15" viewBox="0 0 27 15" fill="none" xmlns="http://www.w3.org/2000/svg">
<path d="M18.7014 10.549C20.4474 10.549 21.8629 9.13356 21.8629 7.38755C21.8629 5.64153 20.4474 4.22611 18.7014 4.22611C16.9554 4.22611 15.54 5.64153 15.54 7.38755C15.54 9.13356 16.9554 10.549 18.7014 10.549Z" fill="#10675B"/>
<path fill-rule="evenodd" clip-rule="evenodd" d="M0.786621 7.38755C0.786621 3.31352 4.08927 0.0108643 8.1633 0.0108643H18.7014C22.7754 0.0108643 26.0781 3.31352 26.0781 7.38755C26.0781 11.4616 22.7754 14.7642 18.7014 14.7642H8.1633C4.08927 14.7642 0.786621 11.4616 0.786621 7.38755ZM8.1633 2.11849H18.7014C21.6114 2.11849 23.9705 4.47753 23.9705 7.38755C23.9705 10.2976 21.6114 12.6566 18.7014 12.6566H8.1633C5.25328 12.6566 2.89424 10.2976 2.89424 7.38755C2.89424 4.47753 5.25328 2.11849 8.1633 2.11849Z" fill="#10675B"/>
</svg>
