<svg width="24" height="14" viewBox="0 0 24 14" fill="none" xmlns="http://www.w3.org/2000/svg">
<path d="M7 10C5.34315 10 4 8.65685 4 7C4 5.34315 5.34315 4 7 4C8.65685 4 10 5.34315 10 7C10 8.65685 8.65685 10 7 10Z" fill="#10675B"/>
<path fill-rule="evenodd" clip-rule="evenodd" d="M24 7C24 3.13401 20.866 0 17 0H7C3.13401 0 0 3.13401 0 7C0 10.866 3.13401 14 7 14H17C20.866 14 24 10.866 24 7ZM17 2H7C4.23858 2 2 4.23858 2 7C2 9.76142 4.23858 12 7 12H17C19.7614 12 22 9.76142 22 7C22 4.23858 19.7614 2 17 2Z" fill="#10675B"/>
</svg>
