<svg width="23" height="19" viewBox="0 0 23 19" fill="none" xmlns="http://www.w3.org/2000/svg">
<path fill-rule="evenodd" clip-rule="evenodd" d="M14.6473 0.343462C15.1769 0.25638 15.7699 0.227304 16.328 0.317946C17.3248 0.479829 18.2454 0.924557 18.9732 1.59132C19.4489 1.60165 19.9165 1.51167 20.3301 1.38341C20.6802 1.27486 20.976 1.14379 21.1832 1.04015C21.2863 0.98862 21.3659 0.944662 21.4176 0.914902C21.4435 0.900046 21.4622 0.888801 21.4734 0.88201L21.4833 0.875949C21.7925 0.678221 22.2042 0.716704 22.4676 0.96821C22.7311 1.21977 22.7735 1.61469 22.5691 1.9126C22.3527 2.22789 22.0523 2.78996 21.7158 3.41972C21.6629 3.51874 21.6091 3.61943 21.5546 3.7211C21.3616 4.08107 21.1637 4.44488 20.9792 4.75701C20.8634 4.953 20.7395 5.15197 20.6146 5.32392V5.59769C20.6225 6.60332 20.5024 7.6037 20.2585 8.57692C20.1051 9.18927 19.9027 9.79086 19.6525 10.3762C19.0041 11.8929 18.0475 13.2703 16.8384 14.4281C15.6293 15.5858 14.192 16.5007 12.6105 17.1192C11.0304 17.7372 9.33794 18.047 7.63185 18.0306C5.15861 18.0326 2.73739 17.3486 0.659559 16.0607C0.353517 15.871 0.224664 15.5034 0.348972 15.1747C0.473281 14.8459 0.817753 14.6433 1.17929 14.6863C1.49216 14.7234 1.80717 14.7416 2.12244 14.7406C3.2552 14.7375 4.36638 14.4973 5.38082 14.0446C5.05837 13.9037 4.75053 13.73 4.46287 13.5252C3.61733 12.9233 2.98826 12.0833 2.66318 11.1222C2.57871 10.8724 2.63646 10.5985 2.81543 10.3999C2.81864 10.3963 2.82188 10.3928 2.82514 10.3893C2.63397 10.2257 2.45508 10.0475 2.2904 9.85584C1.54944 8.99364 1.14145 7.9122 1.13542 6.79447L1.1354 6.79059L1.13541 6.74059C1.13541 6.47472 1.28203 6.22873 1.52078 6.09401C1.58131 6.05986 1.64546 6.03415 1.71145 6.01691C1.35902 5.34183 1.17574 4.59638 1.17708 3.84012C1.17666 2.98336 1.40978 2.14139 1.85329 1.39789C1.98132 1.18325 2.21135 1.04301 2.46815 1.02304C2.72495 1.00306 2.9755 1.10591 3.13786 1.29796C4.14052 2.48397 5.39186 3.45423 6.8106 4.1457C7.53991 4.50115 8.30506 4.77885 9.09235 4.97528C9.53374 5.08541 9.98209 5.17 10.435 5.22843C10.415 4.50517 10.5638 3.7823 10.876 3.11437C11.334 2.13454 12.1178 1.32837 13.1045 0.822273C13.5224 0.607944 14.0771 0.437233 14.6473 0.343462ZM2.89924 7.89096C3.03429 8.25584 3.23519 8.59817 3.49567 8.90126C4.00746 9.49681 4.71782 9.90437 5.50659 10.055C5.85793 10.1221 6.11672 10.41 6.13446 10.7535C6.15219 11.0969 5.92432 11.408 5.58162 11.5081C5.29777 11.591 5.00696 11.6488 4.71284 11.6809C4.9072 11.9214 5.13582 12.1368 5.39354 12.3203C5.97811 12.7364 6.68326 12.9673 7.41087 12.9807C7.74099 12.9868 8.03148 13.1915 8.1365 13.492C8.24153 13.7925 8.13842 14.124 7.87894 14.32C6.78606 15.1455 5.5223 15.7212 4.18319 16.0151C5.29307 16.3563 6.45707 16.532 7.63446 16.5306L7.64353 16.5306C9.14359 16.5455 10.6317 16.2734 12.021 15.7301C13.4103 15.1867 14.6728 14.3831 15.735 13.3661C16.7971 12.3491 17.6374 11.1391 18.207 9.80675C18.4268 9.29252 18.6046 8.76406 18.7394 8.22615C18.9538 7.37038 19.0593 6.49072 19.0521 5.60645L19.0521 5.60059V5.07059C19.0521 4.88873 19.1209 4.71307 19.2458 4.5763C19.3179 4.49726 19.4441 4.3147 19.6202 4.0168C19.7875 3.73368 19.9727 3.39377 20.1653 3.03459C20.177 3.01286 20.1887 2.99103 20.2004 2.96909C19.7009 3.07324 19.1346 3.12783 18.5411 3.06624C18.3531 3.04674 18.1788 2.96245 18.0507 2.82901C17.5268 2.28368 16.8293 1.92067 16.0674 1.79693C15.7293 1.74202 15.3206 1.75459 14.9111 1.82193C14.4662 1.89509 14.0791 2.0231 13.8409 2.14528C13.1593 2.49485 12.6179 3.05169 12.3016 3.72848C11.9852 4.40526 11.9118 5.16371 12.0928 5.88487C12.1506 6.11478 12.0919 6.35736 11.9347 6.53939C11.7774 6.72142 11.5399 6.82158 11.2939 6.80963C10.4153 6.76697 9.54605 6.63832 8.69931 6.42705C7.80358 6.20356 6.93303 5.88761 6.10326 5.4832C4.88162 4.88779 3.76906 4.11069 2.80569 3.183C2.76174 3.39861 2.73943 3.61864 2.73958 3.84009L2.73958 3.84201C2.73849 4.39273 2.87927 4.93516 3.14939 5.42101C3.4195 5.90686 3.81057 6.32105 4.28777 6.6267C4.57737 6.8122 4.70417 7.15928 4.5987 7.4778C4.49323 7.79632 4.18094 8.0094 3.83292 8.00031C3.51771 7.99208 3.20515 7.95527 2.89924 7.89096Z" fill="#10675B"/>
</svg>
