<svg width="52" height="52" viewBox="0 0 52 52" fill="none" xmlns="http://www.w3.org/2000/svg">
<circle cx="26" cy="26" r="26" fill="#0B3E39"/>
<path d="M26.605 13.3023C23.2656 13.3023 20.5585 16.0094 20.5585 19.3488C20.5585 22.6882 23.2656 25.3954 26.605 25.3954C29.9444 25.3954 32.6515 22.6882 32.6515 19.3488C32.6515 16.0094 29.9444 13.3023 26.605 13.3023Z" fill="#FFFC54"/>
<path d="M20.1554 28.6202C16.816 28.6202 14.1089 31.3273 14.1089 34.6667V36.5827C14.1089 37.7972 14.9891 38.8327 16.1877 39.0284C23.0869 40.1548 30.1231 40.1548 37.0223 39.0284C38.2209 38.8327 39.1011 37.7972 39.1011 36.5827V34.6667C39.1011 31.3273 36.394 28.6202 33.0546 28.6202H32.505C32.2075 28.6202 31.9119 28.6672 31.6291 28.7595L30.2336 29.2152C27.8758 29.9851 25.3342 29.9851 22.9764 29.2152L21.5809 28.7595C21.2981 28.6672 21.0025 28.6202 20.705 28.6202H20.1554Z" fill="#FFFC54"/>
</svg>
